<svg width="89" height="85" viewBox="0 0 89 85" fill="none" xmlns="http://www.w3.org/2000/svg">
<path d="M42.5858 67.4142C43.3668 68.1953 44.6332 68.1953 45.4142 67.4142L58.1421 54.6863C58.9232 53.9052 58.9232 52.6389 58.1421 51.8579C57.3611 51.0768 56.0948 51.0768 55.3137 51.8579L44 63.1716L32.6863 51.8579C31.9052 51.0768 30.6389 51.0768 29.8579 51.8579C29.0768 52.6389 29.0768 53.9052 29.8579 54.6863L42.5858 67.4142ZM42 16L42 66L46 66L46 16L42 16Z" fill="#EB623B"/>
<path d="M87 42.5C87 64.7819 68.0598 83 44.5 83C20.9402 83 2 64.7819 2 42.5C2 20.2181 20.9402 2 44.5 2C68.0598 2 87 20.2181 87 42.5Z" stroke="#EB623B" stroke-width="4"/>
</svg>
