<svg width="218" height="462" viewBox="0 0 218 462" fill="none" xmlns="http://www.w3.org/2000/svg">
<g filter="url(#filter0_f_42_32)">
<path d="M180.275 32.6575C168.539 2.12289 110.478 -12.9557 120.06 47.8415C121.631 57.8102 121.789 74.9754 120.06 95.8689C118.476 115.009 87.469 125.481 77.951 150.212C63.024 188.997 118.835 216.03 109.954 236.419C98.3209 263.122 62.7025 274.709 43.001 289.318C24.4541 303.072 12.6403 325.14 8.10422 347.828C0.146263 387.632 14.588 429.345 54.3703 431.42C74.2851 432.459 100.55 423.565 133.534 399.526C148.282 388.778 161.285 379.92 172.843 372.758C202.589 354.324 194.592 397.928 229.963 399.526C250.117 400.436 271.167 362.793 287.102 382.872C298.433 397.149 311.435 414.473 330.004 432.283C362.614 463.56 403.385 468.166 409.152 423.526C411.875 402.454 406.796 370.408 389.377 325.014C378.23 295.965 405.957 296.989 409.152 259.763C412.347 222.538 386.223 205.37 405.134 189.963L405.513 189.655C419.927 177.913 435.301 165.389 443.697 141.335C450.929 120.615 450.238 100.094 443.697 84.3246C436.697 67.4483 422.995 56.0159 405.134 55.6104C387.213 55.2034 365.104 65.898 341.373 93.3339C325.728 111.423 315.132 69.3326 287.102 73.6353C259.072 77.9379 255.176 118.55 238.384 106.771C209.216 86.3096 194.02 68.419 180.275 32.6575Z" stroke="#EB623B" stroke-width="3"/>
<path d="M236.892 199.217C235.106 194.53 226.782 195.76 226.361 200.84C225.881 206.624 228.805 214.162 228.467 219.96C227.815 231.155 223.86 234.342 215.985 240.242C213.163 242.353 211.365 245.741 210.674 249.224C209.463 255.335 211.661 261.738 217.715 262.057C220.746 262.216 224.743 260.851 229.763 257.161C232.007 255.511 233.986 254.151 235.745 253.051C243.402 247.882 250.528 251.932 253.134 254.604C254.858 256.796 256.837 259.455 259.663 262.189C264.626 266.991 272.141 266.362 271.708 260.845C271.097 253.051 257.79 223.96 271.708 218.887C278.173 216.53 277.961 211.193 276.965 208.772C275.9 206.181 273.815 204.426 271.097 204.364C268.369 204.301 263.851 208.772 261.393 210.155C252.319 215.261 244.223 217.9 236.892 199.217Z" stroke="#EB623B" stroke-width="3"/>
<path d="M129.767 61.1431C121.264 5.79655 174.322 19.5933 185.081 47.5858C198.254 81.808 212.817 97.847 240.182 116.002C255.572 126.657 259.276 89.5752 284.941 85.5448C310.607 81.5145 320.412 119.71 334.772 103.255C356.611 78.2986 376.917 68.7268 393.32 69.3308C409.617 69.809 422.111 80.3855 428.423 95.9141C434.317 110.435 434.804 129.28 427.93 148.238C418.957 170.772 406.001 184.798 392.842 196.266C375.655 210.533 399.263 226.291 396.134 260.181C393.005 294.072 367.493 293.047 377.41 319.26C393.002 360.313 397.442 389.229 394.809 408.203C389.443 448.696 352.125 444.355 322.175 415.835C305.001 399.568 292.834 383.832 282.177 371.075C267.518 352.906 248.185 387.277 229.643 386.598C197.231 385.31 204.303 345.753 177.055 362.595C166.357 369.182 154.365 377.268 140.809 387.039C110.247 408.882 86.1489 416.396 68.1391 414.899C31.9735 412.854 18.8899 374.748 26.2115 338.394C30.4196 317.612 41.2737 297.411 58.2775 284.802C76.9197 270.978 109.688 260.149 120.331 234.843C128.428 216.032 77.5879 191.135 91.1124 155.548C99.7154 132.747 127.872 122.918 129.335 105.243C130.927 86.0046 130.982 70.245 129.767 61.1431Z" stroke="#EB623B" stroke-width="3"/>
<path d="M139.911 75.005C132.498 25.2906 180.475 37.7601 190.242 63.1182C202.824 95.6856 216.733 109.821 242.255 125.612C256.221 135.107 259.727 101.677 282.99 97.9328C306.254 94.1881 315.255 128.363 328.307 113.596C348.223 91.2017 366.696 82.7838 381.557 83.5824C396.265 84.1315 407.534 93.8169 413.149 107.947C418.387 121.172 418.669 138.277 412.162 155.411C402.7 176.14 392.376 191.609 380.601 202.675C365.163 215.753 386.222 230.05 383.163 260.495C380.104 290.939 356.844 289.915 365.516 313.207C379.258 349.786 383.054 375.477 380.513 392.292C375.556 428.506 341.746 424.443 314.5 398.774C298.746 384.103 287.433 370.006 277.463 358.812C264.102 342.612 246.515 373.598 229.612 373.152C200.207 372.179 206.342 336.797 181.633 351.992C171.81 357.982 160.847 365.27 148.502 374.033C120.407 393.607 98.5115 399.718 82.433 397.77C49.9371 395.761 38.2308 361.387 44.9053 328.603C48.7793 309.796 58.6579 291.527 74.0937 280.105C91.6495 267.112 121.519 257.077 131.158 233.254C138.458 216.082 92.6634 193.405 104.766 161.131C112.441 140.335 137.706 131.183 139.046 115.032C140.5 97.5122 140.768 83.2102 139.911 75.005Z" stroke="#EB623B" stroke-width="3"/>
<path d="M149.616 88.3075C143.282 44.0437 186.253 55.2314 195.043 78.0472C207.053 109.075 220.33 121.359 244.048 134.843C256.612 143.214 259.925 113.315 280.822 109.843C301.72 106.37 309.93 136.65 321.696 123.517C339.719 103.603 356.389 96.3077 369.73 97.3033C382.873 97.9249 392.933 106.754 397.859 119.536C402.45 131.514 402.527 146.942 396.377 162.313C386.41 181.311 378.704 198.275 368.295 208.976C354.582 220.914 373.123 233.801 370.129 260.911C367.135 288.021 346.092 286.995 353.532 307.45C365.446 339.688 368.604 362.25 366.151 376.967C361.595 409.035 331.241 405.235 306.657 382.324C292.298 369.196 281.82 356.687 272.524 347.013C260.44 332.723 244.57 360.437 229.281 360.221C202.837 359.559 208.046 328.224 185.836 341.827C176.873 347.242 166.923 353.758 155.77 361.544C130.098 378.922 110.371 383.653 96.1991 381.247C67.3229 379.269 56.9759 348.502 63.0137 319.168C66.5595 302.268 75.4779 285.865 89.3695 275.588C105.866 263.38 132.884 254.102 141.533 231.678C148.047 216.083 107.228 195.543 117.926 166.467C124.686 147.601 147.099 139.093 148.318 124.407C149.634 108.542 150.116 95.6458 149.616 88.3075Z" stroke="#EB623B" stroke-width="3"/>
<path d="M159.754 101.609C154.511 62.7978 192.399 72.7033 200.196 92.9764C211.614 122.467 224.235 132.898 246.108 144.075C257.247 151.321 260.362 124.953 278.856 121.753C297.35 118.553 304.756 144.936 315.214 133.438C331.312 116.004 346.148 109.832 357.947 111.026C369.501 111.72 378.335 119.693 382.563 131.128C386.498 141.857 386.37 155.608 380.589 169.216C370.134 186.484 365.06 204.947 356.035 215.285C344.072 226.083 360.062 237.56 357.139 261.334C354.215 285.108 335.425 284.08 341.621 301.697C351.684 329.594 354.198 349.024 351.837 361.641C347.692 389.562 320.846 386.026 298.968 365.872C286.03 354.288 276.407 343.367 267.8 335.215C257.014 322.836 242.891 347.277 229.241 347.292C205.806 346.941 210.079 319.654 190.409 331.665C182.321 336.504 173.401 342.248 163.46 349.058C140.256 364.238 122.733 367.588 110.493 364.724C85.2878 362.775 76.3186 335.616 81.7089 309.733C84.9203 294.74 92.8627 280.203 105.185 271.072C120.594 259.648 144.712 251.128 152.356 230.1C158.073 216.083 122.301 197.68 131.577 171.802C137.409 154.865 156.929 147.001 158.025 133.78C159.203 119.571 159.897 108.08 159.754 101.609Z" stroke="#EB623B" stroke-width="3"/>
<path d="M169.888 115.537C165.735 82.2648 198.539 90.866 205.344 108.551C216.168 136.437 228.131 144.993 248.156 153.838C257.87 159.942 260.786 137.165 276.876 134.244C292.967 131.324 299.566 153.751 308.716 143.913C322.89 128.999 335.891 123.965 346.147 125.352C356.111 126.118 363.719 133.218 367.249 143.278C370.53 152.736 370.196 164.778 364.785 176.593C353.845 192.092 351.4 212.011 343.759 221.963C333.546 231.596 346.986 241.637 344.133 262.022C341.281 282.407 324.746 281.38 329.697 296.121C337.911 319.613 339.781 335.868 337.513 346.358C333.777 370.069 310.442 366.804 291.27 349.455C279.754 339.439 270.986 330.131 263.069 323.518C253.582 313.077 241.206 334.191 229.198 334.438C208.772 334.398 212.109 311.219 194.979 321.611C187.767 325.864 179.878 330.824 171.149 336.642C150.415 349.591 135.096 351.552 124.788 348.236C103.254 346.322 95.6627 322.831 100.405 300.457C103.282 287.404 110.248 274.766 121.001 266.801C135.32 256.188 156.537 248.444 163.176 228.861C168.095 216.452 137.371 200.228 145.224 177.605C150.128 162.637 166.757 155.434 167.729 143.708C168.768 131.186 169.675 121.127 169.888 115.537Z" stroke="#EB623B" stroke-width="3"/>
<path d="M179.584 128.839C176.512 101.022 204.301 108.34 210.126 123.482C220.379 149.833 231.709 156.535 249.928 163.071C258.237 168.049 260.96 148.805 274.68 146.156C288.4 143.508 294.208 162.036 302.069 153.834C314.347 141.402 325.541 137.492 334.275 139.077C342.671 139.916 349.068 146.16 351.908 154.872C354.539 163.081 354.001 173.446 348.947 183.497C337.5 197.266 337.679 218.691 331.406 228.281C322.922 236.773 333.839 245.404 331.052 262.452C328.264 279.499 313.949 278.47 317.666 290.37C324.048 309.517 325.278 322.64 323.099 331.029C319.765 350.589 299.891 347.588 283.386 332.998C273.267 324.527 265.336 316.807 258.093 311.718C249.885 303.189 239.23 321.028 228.838 321.507C211.379 321.778 213.787 302.65 199.162 311.449C192.81 315.126 185.937 319.314 178.402 324.154C160.095 334.904 146.948 335.483 138.55 331.707C120.643 329.822 114.413 309.94 118.518 291.019C121.066 279.874 127.07 269.103 136.277 262.283C149.535 252.455 167.895 245.467 173.542 227.28C177.674 216.449 151.935 202.363 158.382 182.939C162.368 169.9 176.139 163.341 176.99 153.08C177.891 142.214 179.012 133.561 179.584 128.839Z" stroke="#EB623B" stroke-width="3"/>
<path d="M189.706 142.14C187.723 119.782 210.423 125.817 215.254 138.414C224.908 163.236 235.574 168.081 251.939 172.304C258.82 176.155 261.344 160.446 272.658 158.07C283.971 155.693 288.972 170.319 295.523 163.754C305.872 153.805 315.23 151.021 322.418 152.806C329.223 153.719 334.393 159.106 336.536 166.47C338.511 173.43 337.769 182.116 333.087 190.403C321.164 202.442 323.964 225.384 319.076 234.615C312.343 241.967 320.709 249.187 317.994 262.894C315.28 276.601 303.223 275.569 305.696 284.628C310.229 299.425 310.816 309.41 308.731 315.697C305.808 331.103 289.449 328.364 275.654 316.536C266.96 309.61 259.887 303.48 253.337 299.916C246.43 293.301 237.524 307.864 228.776 308.575C214.33 309.159 215.803 294.084 203.721 301.289C198.247 304.391 192.406 307.806 186.085 311.668C170.254 320.218 159.314 319.41 152.849 315.171C138.615 313.315 133.763 297.045 137.219 281.578C139.432 272.342 144.458 263.44 152.094 257.766C164.256 248.72 179.711 242.489 184.352 225.695C187.686 216.441 166.998 204.494 172.022 188.27C175.08 177.162 185.957 171.245 186.685 162.45C187.447 153.239 188.779 145.994 189.706 142.14Z" stroke="#EB623B" stroke-width="3"/>
<path d="M199.544 155.44C198.641 138.549 216.375 143.299 220.239 153.349C229.349 176.65 239.414 179.635 254.017 181.538C259.509 184.26 261.848 172.091 270.816 169.986C279.784 167.881 284.006 178.598 289.282 173.672C297.76 166.211 305.332 164.555 311.014 166.541C316.266 167.528 320.236 172.059 321.691 178.073C323.022 183.785 322.07 190.791 317.733 197.312C305.261 207.621 310.707 232.098 307.179 240.974C302.161 247.185 308.019 252.993 305.361 263.356C302.703 273.718 292.838 272.683 294.079 278.893C296.784 289.334 296.73 296.177 294.727 300.356C292.199 311.602 279.265 309.126 268.105 300.062C260.787 294.683 254.533 290.146 248.639 288.11C242.994 283.413 235.789 294.695 228.636 295.64C217.125 296.538 217.669 285.523 208.065 291.133L207.799 291.277C203.253 293.759 198.5 296.355 193.456 299.182C180.012 305.528 171.22 303.328 166.654 298.623C156.018 296.795 152.519 284.141 155.345 272.132C157.235 264.807 161.311 257.775 167.416 253.248C178.553 244.982 191.187 239.507 194.847 224.101C197.401 216.426 181.654 206.618 185.281 193.596C187.427 184.42 195.467 179.145 196.076 171.816C196.703 164.262 198.254 158.425 199.544 155.44Z" stroke="#EB623B" stroke-width="3"/>
<path d="M209.642 169.385C209.827 158.035 222.457 161.479 225.322 168.937C233.821 190.612 243.21 191.724 255.94 191.301C260 192.882 262.136 184.306 268.689 182.482C275.243 180.657 278.652 187.42 282.614 184.154C289.155 179.214 294.882 178.693 299.014 180.871C302.67 181.927 305.41 185.582 306.167 190.22C306.841 194.657 305.687 199.952 301.727 204.678C288.798 213.211 296.854 239.111 294.712 247.591C291.449 252.634 294.753 257.004 292.171 263.977C289.589 270.949 281.993 269.916 281.99 273.252C282.846 279.29 282.151 282.961 280.245 285.015C278.13 292.051 268.722 289.849 260.283 283.59C254.398 279.781 249.009 276.857 243.815 276.358C239.478 273.598 234.029 281.55 228.527 282.724C220.039 283.931 219.649 277.025 212.597 281.014C208.854 282.953 205.051 284.809 201.129 286.699C190.175 290.814 183.599 287.233 180.967 282.083C174.013 280.291 171.895 271.308 174.07 262.811C175.622 257.428 178.716 252.297 183.245 248.938C193.272 241.49 202.987 236.795 205.637 222.848C207.391 216.785 196.71 209.16 198.911 199.399C200.127 192.194 205.268 187.585 205.752 181.755C206.239 175.891 207.999 171.488 209.642 169.385Z" stroke="#EB623B" stroke-width="3"/>
<path d="M219.888 182.703C221.157 176.854 228.722 179.004 230.598 183.893C238.499 203.991 247.227 203.237 258.11 200.494C260.75 200.941 262.686 195.929 266.844 194.382C271.002 192.834 273.608 195.667 276.266 194.051C280.887 191.612 284.787 192.222 287.381 194.595C289.454 195.724 290.972 198.512 291.035 201.788C291.057 204.963 289.701 208.563 286.111 211.509C272.711 218.29 283.373 245.66 282.61 253.763C281.089 257.651 281.854 260.597 279.345 264.204C276.836 267.811 271.488 266.777 270.248 267.254C269.264 268.915 267.93 269.431 266.118 269.37C264.412 272.224 258.502 270.29 252.76 266.815C248.294 264.564 243.759 263.242 239.256 264.274C236.213 263.44 232.506 268.089 228.639 269.494C223.15 271.012 221.831 268.187 217.31 270.569C214.44 271.926 211.665 273.003 208.951 273.908C200.462 275.807 196.083 270.841 195.374 265.237C192.076 263.478 191.329 258.137 192.858 253.124C194.076 249.667 196.197 246.421 199.162 244.219C208.097 237.57 214.92 233.644 216.568 221.122C217.528 216.654 211.874 211.19 212.659 204.66C212.952 199.407 215.213 195.452 215.574 191.104C215.922 186.914 217.892 183.931 219.888 182.703Z" stroke="#EB623B" stroke-width="3"/>
</g>
<defs>
<filter id="filter0_f_42_32" x="0.500183" y="0.500061" width="453.865" height="461.395" filterUnits="userSpaceOnUse" color-interpolation-filters="sRGB">
<feFlood flood-opacity="0" result="BackgroundImageFix"/>
<feBlend mode="normal" in="SourceGraphic" in2="BackgroundImageFix" result="shape"/>
<feGaussianBlur stdDeviation="2" result="effect1_foregroundBlur_42_32"/>
</filter>
</defs>
</svg>
