<svg width="202" height="351" viewBox="0 0 202 351" fill="none" xmlns="http://www.w3.org/2000/svg">
<g filter="url(#filter0_f_42_45)">
<path d="M39.0201 49.7887C38.1564 29.642 7.1889 9.43317 0.852699 46.8408C-0.186218 52.9744 -3.46353 63.0358 -8.57546 74.9056C-13.2583 85.7789 -33.4328 85.8118 -43.8495 98.3946C-60.1858 118.128 -32.8796 144.881 -42.0719 155.052C-54.1115 168.372 -77.1996 168.151 -91.5801 172.82C-105.118 177.216 -116.353 187.792 -123.458 200.16C-135.922 221.857 -135.671 249.067 -112.832 258.089C-101.399 262.606 -84.305 262.564 -60.3117 254.992C-49.5843 251.607 -40.2466 248.984 -32.0872 247.067C-11.0863 242.135 -24.3192 266.045 -3.96383 273.922C7.6346 278.41 27.3248 260.546 32.6947 275.407C36.513 285.974 40.7103 298.65 48.0647 312.702C60.9803 337.381 83.901 348.076 96.0338 323.123C101.761 311.344 105.085 291.621 103.817 261.675C103.006 242.512 119.007 248.554 128.182 227.428C137.356 206.303 125.461 191.142 139.536 185.852L139.818 185.746C150.546 181.714 161.988 177.414 171.616 165.006C179.91 154.318 183.535 142.191 182.808 131.692C182.03 120.456 176.268 111.086 165.911 107.343C155.518 103.587 140.499 105.496 121.247 116.87C108.553 124.369 110.624 97.6934 93.4003 94.7051C76.1763 91.7168 65.9274 114.683 58.4274 104.504C45.3995 86.8216 40.0316 73.3841 39.0201 49.7887Z" stroke="#CF550A" stroke-width="3"/>
<path d="M39.4073 158.232C39.2839 155.142 34.1784 154.227 32.935 157.113C31.5193 160.399 31.748 165.378 30.4124 168.699C27.8334 175.113 24.8968 176.199 19.137 178.101C17.0731 178.78 15.3575 180.407 14.2704 182.307C12.3631 185.64 12.3903 189.813 15.8656 191.188C17.6053 191.876 20.2091 191.863 23.8668 190.692C25.5022 190.168 26.9255 189.762 28.1691 189.465C33.6581 187.947 37.027 191.713 38.0254 193.786C38.6027 195.405 39.237 197.347 40.3515 199.5C42.3089 203.28 46.824 204.388 47.654 201.079C48.8267 196.405 46.7621 176.793 55.8908 176.561C60.1312 176.453 61.0549 173.292 60.9484 171.682C60.8345 169.959 59.9606 168.524 58.3844 167.954C56.8029 167.382 53.2852 169.108 51.5774 169.433C45.2728 170.636 40.0237 170.589 39.4073 158.232Z" stroke="#CF550A" stroke-width="3"/>
<path d="M3.91421 56.5193C9.81025 22.5084 38.106 40.9861 38.8982 59.4556C39.8776 82.0393 45.239 94.2705 57.6658 110.251C64.5675 119.499 74.0109 98.5571 89.7997 101.24C105.589 103.924 103.82 128.168 115.442 121.371C133.102 111.075 146.847 109.468 156.314 113.041C165.743 116.52 170.967 125.153 171.607 135.466C172.201 145.109 168.786 156.216 161.048 165.944C151.381 177.351 141.056 183.004 131.116 187.122C118.272 192.085 128.974 205.927 120.493 225.117C112.011 244.307 97.3042 238.699 97.9534 255.963C99.0056 283.014 95.924 300.782 90.6602 311.353C79.5757 333.962 58.6211 324.099 46.7187 301.554C39.8765 288.677 35.8559 277.093 32.1323 267.547C27.1332 254.052 9.08868 270.342 -1.61299 266.305C-20.3 259.19 -8.4023 237.463 -27.6308 241.955C-35.1752 243.704 -43.77 246.075 -53.6096 249.124C-75.7564 255.888 -91.313 255.548 -101.543 251.138C-122.275 242.843 -122.44 218.008 -111.025 198.202C-104.486 186.884 -94.178 177.21 -81.7668 173.18C-68.1594 168.761 -46.8856 168.866 -35.6984 156.168C-27.2744 146.765 -52.0953 122.237 -37.2061 104.096C-27.7029 92.4613 -9.32015 92.2452 -4.99562 82.2042C-0.288447 71.2748 2.83745 62.0765 3.91421 56.5193Z" stroke="#CF550A" stroke-width="3"/>
<path d="M7.12021 66.6107C12.5478 36.1049 38.1354 52.8097 38.8649 69.5451C39.8239 91.0457 45.1767 102.036 56.9905 116.274C63.2876 124.564 71.8985 105.717 86.2276 108.096C100.557 110.475 99.1076 132.212 109.634 126.145C125.668 116.968 138.115 115.676 146.642 119.06C155.129 122.268 159.813 130.14 160.32 139.499C160.785 148.255 157.591 158.306 150.426 167.041C140.827 177.296 131.758 184.309 122.705 188.464C111.116 193.076 120.616 205.564 112.851 222.753C105.087 239.943 91.6962 234.779 92.1915 250.091C93.0411 274.164 90.216 289.922 85.4301 299.249C75.4246 319.438 56.4652 310.426 45.5832 290.078C39.2572 278.412 35.4136 267.954 31.7856 259.455C27.1581 247.366 10.798 262.02 1.00856 258.441C-15.9831 252.1 -5.45221 232.63 -22.8741 236.658C-29.7902 238.23 -37.6266 240.337 -46.5606 243.034C-66.8207 248.956 -80.8149 248.229 -89.8279 243.934C-108.423 236.382 -108.515 213.997 -98.1792 196.15C-92.2235 185.921 -82.8645 177.184 -71.6025 173.54C-58.7932 169.394 -39.3687 169.394 -29.0597 157.365C-21.4232 148.764 -43.7314 126.522 -30.3239 110.039C-21.7564 99.3938 -5.19598 99.0056 -1.24244 89.8308C3.04614 79.8783 6.01041 71.5736 7.12021 66.6107Z" stroke="#CF550A" stroke-width="3"/>
<path d="M10.1799 76.289C15.168 49.1802 38.0818 64.1532 38.7394 79.2111C39.6669 99.6998 45.0136 109.484 56.2261 122.02C61.9245 129.378 69.7299 112.557 82.6229 114.63C95.5159 116.703 94.3696 136.009 103.823 130.645C118.264 122.546 129.437 121.555 137.038 124.756C144.596 127.699 148.741 134.833 149.11 143.27C149.442 151.17 146.458 160.2 139.847 167.975C130.293 177.12 122.46 185.52 114.277 189.73C103.92 194.014 112.225 205.184 105.154 220.438C98.0821 235.692 85.9867 230.962 86.319 244.375C86.9521 265.552 84.3683 279.356 80.0459 287.474C71.0889 305.319 54.0969 297.14 44.229 278.925C38.4156 268.436 34.7487 259.069 31.2155 251.591C26.9592 240.869 12.2454 253.948 3.35331 250.821C-11.9688 245.242 -2.77383 227.954 -18.4223 231.543C-24.7232 232.948 -31.8163 234.802 -39.8621 237.163C-58.2751 242.278 -70.7312 241.17 -78.5402 236.982C-95.0257 230.157 -95.0321 210.147 -85.7454 194.191C-80.3558 185.012 -71.9243 177.177 -61.7894 173.899C-49.753 170.004 -32.1439 169.886 -22.6876 158.481C-15.8199 150.647 -35.6405 130.631 -23.6809 115.741C-16.0273 106.043 -1.26018 105.471 2.33502 97.1289C6.21877 88.1168 9.03191 80.6754 10.1799 76.289Z" stroke="#CF550A" stroke-width="3"/>
<path d="M13.4931 86.0522C18.0481 62.3435 38.2435 75.5695 38.8202 88.9468C39.7032 108.421 45.0304 116.994 55.6176 127.819C60.7042 134.24 67.7006 119.443 79.1359 121.204C90.5711 122.965 89.7193 139.835 98.0876 135.169C110.917 128.142 120.798 127.448 127.458 130.461C134.073 133.135 137.67 139.529 137.896 147.04C138.09 154.083 135.315 162.093 129.266 168.91C119.767 176.948 113.177 186.741 105.874 191.01C96.7639 194.971 103.855 204.817 97.4794 218.135C91.104 231.454 80.326 227.164 80.4879 238.675C80.8922 256.952 78.5468 268.8 74.6906 275.709C66.787 291.21 51.794 283.874 42.9656 267.803C37.6795 258.494 34.2001 250.223 30.7709 243.769C26.8982 234.418 13.8474 245.928 5.86841 243.258C-7.75674 238.452 0.0964939 223.345 -13.7554 226.503C-19.4318 227.743 -25.7713 229.348 -32.9173 231.376C-49.4565 235.691 -60.3538 234.209 -66.9439 230.132C-81.29 224.046 -81.1995 206.415 -72.9687 192.348C-68.1488 184.217 -60.6541 177.282 -51.6607 174.365C-40.4142 170.715 -24.6483 170.47 -16.0536 159.684C-9.96131 152.615 -27.252 134.839 -16.7515 121.538C-10.019 112.786 2.93174 112.022 6.16734 104.512C9.64489 96.4398 12.3064 89.8617 13.4931 86.0522Z" stroke="#CF550A" stroke-width="3"/>
<path d="M16.681 96.1804C20.7855 75.9224 38.2663 87.3883 38.7708 99.0582C39.6215 117.478 44.9325 124.826 54.8977 133.926C59.3756 139.4 65.551 126.663 75.5268 128.115C85.5025 129.566 84.9565 143.967 92.2344 140.015C103.444 134.082 112.03 133.693 117.75 136.517C123.423 138.92 126.475 144.562 126.563 151.134C126.623 157.305 124.064 164.276 118.583 170.118C109.148 177.027 103.808 188.187 97.3896 192.503C89.5307 196.126 95.4131 204.632 89.7445 215.984C84.0759 227.336 74.6154 223.49 74.6147 233.076C74.803 248.416 72.7046 258.282 69.3203 263.967C62.4826 277.088 49.4876 270.6 41.6904 256.698C36.927 248.585 33.6308 241.424 30.3027 236.006C26.8085 228.043 15.4318 237.951 8.36633 235.738C-3.56155 231.705 2.93835 218.815 -9.11137 221.525C-14.1608 222.594 -19.7439 223.944 -25.9868 225.63C-40.6446 229.126 -49.9812 227.265 -55.3538 223.304C-67.5614 217.958 -67.3861 202.741 -60.2225 190.598C-55.9791 183.535 -49.4277 177.518 -41.5803 174.974C-31.1298 171.584 -17.2116 171.223 -9.48793 161.083C-4.17737 154.798 -18.9459 139.286 -9.91587 127.608C-4.11176 119.824 7.01899 118.879 9.88913 112.218C12.9542 105.105 15.4587 99.4047 16.681 96.1804Z" stroke="#CF550A" stroke-width="3"/>
<path d="M19.7352 105.857C23.4006 88.9986 38.2025 98.7304 38.6343 108.722C39.4523 126.133 44.7575 132.273 54.1207 139.669C57.9986 144.209 63.368 133.498 71.9053 134.644C80.4425 135.79 80.1991 147.757 86.4028 144.507C96.0176 139.653 103.327 139.565 108.119 142.206C112.86 144.345 115.373 149.249 115.322 154.898C115.248 160.211 112.899 166.162 107.973 171.044C98.5809 176.842 94.4791 189.396 88.931 193.769C82.3062 197.066 86.9913 204.253 82.016 213.667C77.0406 223.082 68.8779 219.67 68.7135 227.354C68.6839 239.795 66.8267 247.705 63.9064 252.179C58.1183 262.955 47.0945 257.3 40.3138 245.534C36.064 238.597 32.945 232.529 29.7117 228.134C26.5895 221.538 16.8614 229.871 10.6947 228.111C0.439342 224.842 5.60139 214.137 -4.67208 216.408C-9.10543 217.31 -13.9442 218.407 -19.2975 219.757C-32.1055 222.445 -39.9012 220.202 -44.0671 216.347C-54.1614 211.73 -53.8988 198.889 -47.7858 188.638C-44.1089 182.626 -38.4862 177.511 -31.7675 175.333C-22.0905 172.192 -9.99025 171.714 -3.11999 162.195C1.42094 156.677 -10.8548 143.393 -3.27447 133.308C1.61454 126.471 10.9491 125.341 13.4607 119.513C16.1207 113.34 18.4743 108.504 19.7352 105.857Z" stroke="#CF550A" stroke-width="3"/>
<path d="M23.0389 115.616C26.2691 102.162 38.3493 110.145 38.6997 118.454C39.4676 134.854 44.7496 139.779 53.483 145.459C56.7484 149.06 61.3069 140.377 68.3845 141.209C75.4621 142.041 75.5131 151.569 80.63 149.019C88.6303 145.237 94.6451 145.447 98.4951 147.901C102.293 149.77 104.256 153.933 104.063 158.657C103.851 163.112 101.712 168.042 97.3489 171.966C88.0186 176.659 85.1512 190.615 80.4828 195.05C75.1051 198.024 78.5764 203.886 74.2992 211.363C70.0221 218.839 63.1795 215.87 62.8463 221.648C62.5901 231.185 60.973 237.135 58.5206 240.399C53.7881 248.828 44.7662 244.016 39.0271 234.396C35.3065 228.642 32.3768 223.672 29.2492 220.304C26.5115 215.082 18.4488 221.844 13.1969 220.542C4.64079 218.047 8.46069 209.528 -0.0137352 211.366C-3.8211 212.104 -7.90475 212.953 -12.3566 213.969C-23.286 215.857 -29.5197 213.237 -32.4657 209.491C-40.419 205.613 -40.06 195.153 -35.0043 186.793C-31.8981 181.83 -27.2135 177.615 -21.6381 175.799C-12.755 172.9 -2.50114 172.293 3.50761 163.39C7.2725 158.637 -2.47092 147.595 3.64952 139.1C7.61728 133.21 15.1345 131.888 17.2863 126.891C19.5398 121.658 21.7405 117.686 23.0389 115.616Z" stroke="#CF550A" stroke-width="3"/>
<path d="M26.1769 125.319C28.9652 115.272 38.3954 121.529 38.6802 128.16C39.4295 143.564 44.7255 147.284 52.8848 151.263C55.5598 153.932 59.3153 147.28 64.9692 147.81C70.623 148.341 70.9858 155.432 75.0363 153.59C81.4548 150.894 86.2046 151.413 89.1351 153.689C92.01 155.296 93.4404 158.723 93.1105 162.524C92.7665 166.122 90.8353 170.03 87.0205 172.989C77.7089 176.564 76.0865 191.936 72.2821 196.43C68.1307 199.075 70.4136 203.619 66.8261 209.152C63.2385 214.686 57.6774 212.145 57.1832 216.017C56.7147 222.649 55.3399 226.637 53.3491 228.686C49.6637 234.761 42.5921 230.775 37.8498 223.288C34.6298 218.708 31.8655 214.829 28.821 212.483C26.445 208.63 20.02 213.808 15.6546 212.956C8.75159 211.221 11.2318 204.891 4.51842 206.284L4.33506 206.316C1.19143 206.874 -2.09607 207.458 -5.59831 208.12C-14.7001 209.189 -19.4057 206.177 -21.1505 202.531C-27.0068 199.375 -26.567 191.294 -22.5582 184.832C-20.0158 180.922 -16.2536 177.613 -11.7973 176.166C-3.66672 173.523 4.79045 172.803 9.95318 164.519C12.9523 160.536 5.67652 151.713 10.3519 144.816C13.4075 139.875 19.1413 138.371 20.9355 134.208C22.7847 129.917 24.8374 126.81 26.1769 125.319Z" stroke="#CF550A" stroke-width="3"/>
<path d="M29.34 135.45C31.6766 128.854 38.3802 133.346 38.5906 138.267C39.302 152.601 44.5702 155.094 52.0922 157.345C54.1543 159.067 57.0859 154.474 61.2734 154.695C65.4609 154.915 66.1257 159.536 69.0818 158.406C73.8737 156.803 77.323 157.623 79.3098 159.706C81.2389 161.041 82.1222 163.715 81.6543 166.574C81.177 169.299 79.4636 172.167 76.2215 174.151C66.9914 176.599 66.6144 193.315 63.6983 197.85C60.8018 200.156 61.874 203.358 58.9966 206.926C56.1192 210.493 51.8832 208.398 51.2268 210.347C50.5418 214.044 49.4148 216.052 47.8977 216.878C45.2805 220.575 40.2158 217.441 36.513 212.127C33.8218 208.746 31.2467 205.979 28.3097 204.668C26.3168 202.204 21.572 205.781 18.1262 205.387C12.9294 204.426 14.0573 200.314 9.15348 201.261C6.58553 201.659 3.99883 201.997 1.3356 202.332C-5.87293 202.586 -9.01259 199.202 -9.53929 195.676C-13.2511 193.264 -12.7253 187.599 -9.78659 183.061C-7.82285 180.22 -5.00759 177.829 -1.70195 176.755C5.61962 174.371 12.2183 173.535 16.5047 165.905C18.7197 162.706 13.9751 156.154 17.1774 150.882C19.3027 146.911 23.2112 145.227 24.6387 141.915C26.0742 138.584 27.9672 136.356 29.34 135.45Z" stroke="#CF550A" stroke-width="3"/>
<path d="M32.7133 145.244C34.6031 142.075 38.6015 144.817 38.7379 148.042C39.4097 161.337 44.6574 162.61 51.5554 163.143C53.0102 163.923 55.1256 161.374 57.8592 161.286C60.5928 161.198 61.5594 163.365 63.4299 162.942C66.609 162.425 68.768 163.547 69.8179 165.443C70.8079 166.509 71.1475 168.436 70.5414 170.363C69.9307 172.223 68.4316 174.06 65.7553 175.077C56.5941 176.408 57.4517 194.495 55.4148 199.081C53.763 201.054 53.6316 202.926 51.4574 204.541C49.2832 206.156 46.3608 204.502 45.5427 204.537C44.642 205.315 43.7608 205.354 42.7138 204.963C41.1566 206.296 38.083 204.006 35.4101 200.848C33.2418 198.656 30.8517 196.993 28.0177 196.712C26.4033 195.627 23.3245 197.616 20.7893 197.678C17.2837 197.488 17.067 195.578 13.9577 196.082C12.0146 196.312 10.1815 196.397 8.41782 196.393C3.0846 195.835 1.50039 192.074 2.18629 188.66C0.604127 186.985 1.21638 183.717 3.09388 181.088C4.48439 179.307 6.36091 177.827 8.52561 177.122C15.0521 174.991 19.8099 174.036 23.2312 167.042C24.669 164.62 22.4379 160.317 24.1784 156.655C25.3811 153.643 27.4784 151.776 28.5432 149.306C29.5691 146.926 31.3057 145.57 32.7133 145.244Z" stroke="#CF550A" stroke-width="3"/>
</g>
<defs>
<filter id="filter0_f_42_45" x="-135.203" y="22.4104" width="321.602" height="318.432" filterUnits="userSpaceOnUse" color-interpolation-filters="sRGB">
<feFlood flood-opacity="0" result="BackgroundImageFix"/>
<feBlend mode="normal" in="SourceGraphic" in2="BackgroundImageFix" result="shape"/>
<feGaussianBlur stdDeviation="1" result="effect1_foregroundBlur_42_45"/>
</filter>
</defs>
</svg>
