<svg width="65" height="52" viewBox="0 0 65 52" fill="none" xmlns="http://www.w3.org/2000/svg">
<path d="M27.7 0.699993L17.8 36.7L14.5 23.2C18.8 23.2 22.3 24.45 25 26.95C27.7 29.45 29.05 32.9 29.05 37.3C29.05 41.6 27.65 45.1 24.85 47.8C22.15 50.4 18.75 51.7 14.65 51.7C10.45 51.7 6.95 50.4 4.15 47.8C1.45 45.1 0.1 41.6 0.1 37.3C0.1 36 0.2 34.75 0.4 33.55C0.6 32.25 1 30.75 1.6 29.05C2.2 27.35 3.05 25.1 4.15 22.3L12.85 0.699993H27.7ZM63.1 0.699993L53.2 36.7L49.9 23.2C54.2 23.2 57.7 24.45 60.4 26.95C63.1 29.45 64.45 32.9 64.45 37.3C64.45 41.6 63.05 45.1 60.25 47.8C57.55 50.4 54.15 51.7 50.05 51.7C45.85 51.7 42.35 50.4 39.55 47.8C36.85 45.1 35.5 41.6 35.5 37.3C35.5 36 35.6 34.75 35.8 33.55C36 32.25 36.4 30.75 37 29.05C37.6 27.35 38.45 25.1 39.55 22.3L48.25 0.699993H63.1Z" fill="white"/>
</svg>
