<svg width="246" height="52" viewBox="0 0 246 52" fill="none" xmlns="http://www.w3.org/2000/svg">
<path d="M64.5 0.5V48.5" stroke="white" stroke-width="3"/>
<path d="M80.494 25V12.4H86.218C87.586 12.4 88.792 12.664 89.836 13.192C90.88 13.708 91.696 14.434 92.284 15.37C92.872 16.306 93.166 17.416 93.166 18.7C93.166 19.972 92.872 21.082 92.284 22.03C91.696 22.966 90.88 23.698 89.836 24.226C88.792 24.742 87.586 25 86.218 25H80.494ZM83.41 22.606H86.074C86.914 22.606 87.64 22.45 88.252 22.138C88.876 21.814 89.356 21.358 89.692 20.77C90.04 20.182 90.214 19.492 90.214 18.7C90.214 17.896 90.04 17.206 89.692 16.63C89.356 16.042 88.876 15.592 88.252 15.28C87.64 14.956 86.914 14.794 86.074 14.794H83.41V22.606ZM95.3651 25V12.4H98.2811V25H95.3651ZM107.355 25.216C106.359 25.216 105.441 25.06 104.601 24.748C103.773 24.424 103.047 23.968 102.423 23.38C101.811 22.792 101.331 22.102 100.983 21.31C100.647 20.518 100.479 19.648 100.479 18.7C100.479 17.752 100.647 16.882 100.983 16.09C101.331 15.298 101.817 14.608 102.441 14.02C103.065 13.432 103.797 12.982 104.637 12.67C105.477 12.346 106.401 12.184 107.409 12.184C108.525 12.184 109.527 12.37 110.415 12.742C111.315 13.114 112.071 13.654 112.683 14.362L110.811 16.09C110.355 15.61 109.857 15.256 109.317 15.028C108.777 14.788 108.189 14.668 107.553 14.668C106.941 14.668 106.383 14.764 105.879 14.956C105.375 15.148 104.937 15.424 104.565 15.784C104.205 16.144 103.923 16.57 103.719 17.062C103.527 17.554 103.431 18.1 103.431 18.7C103.431 19.288 103.527 19.828 103.719 20.32C103.923 20.812 104.205 21.244 104.565 21.616C104.937 21.976 105.369 22.252 105.861 22.444C106.365 22.636 106.917 22.732 107.517 22.732C108.093 22.732 108.651 22.642 109.191 22.462C109.743 22.27 110.277 21.952 110.793 21.508L112.449 23.614C111.765 24.13 110.967 24.526 110.055 24.802C109.155 25.078 108.255 25.216 107.355 25.216ZM109.785 23.236V18.502H112.449V23.614L109.785 23.236ZM115.158 25V12.4H118.074V25H115.158ZM123.674 25V14.776H119.642V12.4H130.622V14.776H126.59V25H123.674ZM129.902 25L135.518 12.4H138.398L144.032 25H140.972L136.364 13.876H137.516L132.89 25H129.902ZM132.71 22.3L133.484 20.086H139.964L140.756 22.3H132.71ZM145.34 25V12.4H148.256V22.624H154.574V25H145.34ZM84.634 47.216C83.626 47.216 82.66 47.084 81.736 46.82C80.812 46.544 80.068 46.19 79.504 45.758L80.494 43.562C81.034 43.946 81.67 44.264 82.402 44.516C83.146 44.756 83.896 44.876 84.652 44.876C85.228 44.876 85.69 44.822 86.038 44.714C86.398 44.594 86.662 44.432 86.83 44.228C86.998 44.024 87.082 43.79 87.082 43.526C87.082 43.19 86.95 42.926 86.686 42.734C86.422 42.53 86.074 42.368 85.642 42.248C85.21 42.116 84.73 41.996 84.202 41.888C83.686 41.768 83.164 41.624 82.636 41.456C82.12 41.288 81.646 41.072 81.214 40.808C80.782 40.544 80.428 40.196 80.152 39.764C79.888 39.332 79.756 38.78 79.756 38.108C79.756 37.388 79.948 36.734 80.332 36.146C80.728 35.546 81.316 35.072 82.096 34.724C82.888 34.364 83.878 34.184 85.066 34.184C85.858 34.184 86.638 34.28 87.406 34.472C88.174 34.652 88.852 34.928 89.44 35.3L88.54 37.514C87.952 37.178 87.364 36.932 86.776 36.776C86.188 36.608 85.612 36.524 85.048 36.524C84.484 36.524 84.022 36.59 83.662 36.722C83.302 36.854 83.044 37.028 82.888 37.244C82.732 37.448 82.654 37.688 82.654 37.964C82.654 38.288 82.786 38.552 83.05 38.756C83.314 38.948 83.662 39.104 84.094 39.224C84.526 39.344 85 39.464 85.516 39.584C86.044 39.704 86.566 39.842 87.082 39.998C87.61 40.154 88.09 40.364 88.522 40.628C88.954 40.892 89.302 41.24 89.566 41.672C89.842 42.104 89.98 42.65 89.98 43.31C89.98 44.018 89.782 44.666 89.386 45.254C88.99 45.842 88.396 46.316 87.604 46.676C86.824 47.036 85.834 47.216 84.634 47.216ZM100.613 34.4H103.529V47H100.613V34.4ZM94.8885 47H91.9725V34.4H94.8885V47ZM100.829 41.834H94.6725V39.368H100.829V41.834ZM112.63 47.216C111.634 47.216 110.71 47.054 109.858 46.73C109.018 46.406 108.286 45.95 107.662 45.362C107.05 44.774 106.57 44.084 106.222 43.292C105.886 42.5 105.718 41.636 105.718 40.7C105.718 39.764 105.886 38.9 106.222 38.108C106.57 37.316 107.056 36.626 107.68 36.038C108.304 35.45 109.036 34.994 109.876 34.67C110.716 34.346 111.628 34.184 112.612 34.184C113.608 34.184 114.52 34.346 115.348 34.67C116.188 34.994 116.914 35.45 117.526 36.038C118.15 36.626 118.636 37.316 118.984 38.108C119.332 38.888 119.506 39.752 119.506 40.7C119.506 41.636 119.332 42.506 118.984 43.31C118.636 44.102 118.15 44.792 117.526 45.38C116.914 45.956 116.188 46.406 115.348 46.73C114.52 47.054 113.614 47.216 112.63 47.216ZM112.612 44.732C113.176 44.732 113.692 44.636 114.16 44.444C114.64 44.252 115.06 43.976 115.42 43.616C115.78 43.256 116.056 42.83 116.248 42.338C116.452 41.846 116.554 41.3 116.554 40.7C116.554 40.1 116.452 39.554 116.248 39.062C116.056 38.57 115.78 38.144 115.42 37.784C115.072 37.424 114.658 37.148 114.178 36.956C113.698 36.764 113.176 36.668 112.612 36.668C112.048 36.668 111.526 36.764 111.046 36.956C110.578 37.148 110.164 37.424 109.804 37.784C109.444 38.144 109.162 38.57 108.958 39.062C108.766 39.554 108.67 40.1 108.67 40.7C108.67 41.288 108.766 41.834 108.958 42.338C109.162 42.83 109.438 43.256 109.786 43.616C110.146 43.976 110.566 44.252 111.046 44.444C111.526 44.636 112.048 44.732 112.612 44.732ZM124.317 47L120.195 34.4H123.219L126.801 45.56H125.289L129.033 34.4H131.733L135.333 45.56H133.875L137.547 34.4H140.337L136.215 47H133.083L129.897 37.208H130.725L127.449 47H124.317ZM141.965 47V34.4H148.121C149.705 34.4 150.893 34.7 151.685 35.3C152.489 35.9 152.891 36.692 152.891 37.676C152.891 38.336 152.729 38.912 152.405 39.404C152.081 39.884 151.637 40.256 151.073 40.52C150.509 40.784 149.861 40.916 149.129 40.916L149.471 40.178C150.263 40.178 150.965 40.31 151.577 40.574C152.189 40.826 152.663 41.204 152.999 41.708C153.347 42.212 153.521 42.83 153.521 43.562C153.521 44.642 153.095 45.488 152.243 46.1C151.391 46.7 150.137 47 148.481 47H141.965ZM144.863 44.804H148.265C149.021 44.804 149.591 44.684 149.975 44.444C150.371 44.192 150.569 43.796 150.569 43.256C150.569 42.728 150.371 42.338 149.975 42.086C149.591 41.822 149.021 41.69 148.265 41.69H144.647V39.566H147.761C148.469 39.566 149.009 39.446 149.381 39.206C149.765 38.954 149.957 38.576 149.957 38.072C149.957 37.58 149.765 37.214 149.381 36.974C149.009 36.722 148.469 36.596 147.761 36.596H144.863V44.804ZM161.848 47.216C160.852 47.216 159.928 47.054 159.076 46.73C158.236 46.406 157.504 45.95 156.88 45.362C156.268 44.774 155.788 44.084 155.44 43.292C155.104 42.5 154.936 41.636 154.936 40.7C154.936 39.764 155.104 38.9 155.44 38.108C155.788 37.316 156.274 36.626 156.898 36.038C157.522 35.45 158.254 34.994 159.094 34.67C159.934 34.346 160.846 34.184 161.83 34.184C162.826 34.184 163.738 34.346 164.566 34.67C165.406 34.994 166.132 35.45 166.744 36.038C167.368 36.626 167.854 37.316 168.202 38.108C168.55 38.888 168.724 39.752 168.724 40.7C168.724 41.636 168.55 42.506 168.202 43.31C167.854 44.102 167.368 44.792 166.744 45.38C166.132 45.956 165.406 46.406 164.566 46.73C163.738 47.054 162.832 47.216 161.848 47.216ZM161.83 44.732C162.394 44.732 162.91 44.636 163.378 44.444C163.858 44.252 164.278 43.976 164.638 43.616C164.998 43.256 165.274 42.83 165.466 42.338C165.67 41.846 165.772 41.3 165.772 40.7C165.772 40.1 165.67 39.554 165.466 39.062C165.274 38.57 164.998 38.144 164.638 37.784C164.29 37.424 163.876 37.148 163.396 36.956C162.916 36.764 162.394 36.668 161.83 36.668C161.266 36.668 160.744 36.764 160.264 36.956C159.796 37.148 159.382 37.424 159.022 37.784C158.662 38.144 158.38 38.57 158.176 39.062C157.984 39.554 157.888 40.1 157.888 40.7C157.888 41.288 157.984 41.834 158.176 42.338C158.38 42.83 158.656 43.256 159.004 43.616C159.364 43.976 159.784 44.252 160.264 44.444C160.744 44.636 161.266 44.732 161.83 44.732ZM169.084 47L174.7 34.4H177.58L183.214 47H180.154L175.546 35.876H176.698L172.072 47H169.084ZM171.892 44.3L172.666 42.086H179.146L179.938 44.3H171.892ZM184.521 47V34.4H189.975C191.103 34.4 192.075 34.586 192.891 34.958C193.707 35.318 194.337 35.84 194.781 36.524C195.225 37.208 195.447 38.024 195.447 38.972C195.447 39.908 195.225 40.718 194.781 41.402C194.337 42.074 193.707 42.59 192.891 42.95C192.075 43.31 191.103 43.49 189.975 43.49H186.141L187.437 42.212V47H184.521ZM192.531 47L189.381 42.428H192.495L195.681 47H192.531ZM187.437 42.536L186.141 41.168H189.813C190.713 41.168 191.385 40.976 191.829 40.592C192.273 40.196 192.495 39.656 192.495 38.972C192.495 38.276 192.273 37.736 191.829 37.352C191.385 36.968 190.713 36.776 189.813 36.776H186.141L187.437 35.39V42.536ZM197.758 47V34.4H203.482C204.85 34.4 206.056 34.664 207.1 35.192C208.144 35.708 208.96 36.434 209.548 37.37C210.136 38.306 210.43 39.416 210.43 40.7C210.43 41.972 210.136 43.082 209.548 44.03C208.96 44.966 208.144 45.698 207.1 46.226C206.056 46.742 204.85 47 203.482 47H197.758ZM200.674 44.606H203.338C204.178 44.606 204.904 44.45 205.516 44.138C206.14 43.814 206.62 43.358 206.956 42.77C207.304 42.182 207.478 41.492 207.478 40.7C207.478 39.896 207.304 39.206 206.956 38.63C206.62 38.042 206.14 37.592 205.516 37.28C204.904 36.956 204.178 36.794 203.338 36.794H200.674V44.606ZM212.629 47V34.4H215.545V47H212.629ZM218.535 47V34.4H220.947L228.381 43.472H227.211V34.4H230.091V47H227.697L220.245 37.928H221.415V47H218.535ZM239.156 47.216C238.16 47.216 237.242 47.06 236.402 46.748C235.574 46.424 234.848 45.968 234.224 45.38C233.612 44.792 233.132 44.102 232.784 43.31C232.448 42.518 232.28 41.648 232.28 40.7C232.28 39.752 232.448 38.882 232.784 38.09C233.132 37.298 233.618 36.608 234.242 36.02C234.866 35.432 235.598 34.982 236.438 34.67C237.278 34.346 238.202 34.184 239.21 34.184C240.326 34.184 241.328 34.37 242.216 34.742C243.116 35.114 243.872 35.654 244.484 36.362L242.612 38.09C242.156 37.61 241.658 37.256 241.118 37.028C240.578 36.788 239.99 36.668 239.354 36.668C238.742 36.668 238.184 36.764 237.68 36.956C237.176 37.148 236.738 37.424 236.366 37.784C236.006 38.144 235.724 38.57 235.52 39.062C235.328 39.554 235.232 40.1 235.232 40.7C235.232 41.288 235.328 41.828 235.52 42.32C235.724 42.812 236.006 43.244 236.366 43.616C236.738 43.976 237.17 44.252 237.662 44.444C238.166 44.636 238.718 44.732 239.318 44.732C239.894 44.732 240.452 44.642 240.992 44.462C241.544 44.27 242.078 43.952 242.594 43.508L244.25 45.614C243.566 46.13 242.768 46.526 241.856 46.802C240.956 47.078 240.056 47.216 239.156 47.216ZM241.586 45.236V40.502H244.25V45.614L241.586 45.236Z" fill="white"/>
<g clip-path="url(#clip0_34_10)">
<path d="M37.5 35.665C38.0012 35.8454 38.5298 35.9375 39.0625 35.9375H45.3125C45.8451 35.9375 46.3738 35.8453 46.875 35.665V42.1875C46.875 43.4307 46.3811 44.623 45.5021 45.5021C44.623 46.3811 43.4307 46.875 42.1875 46.875C40.9443 46.875 39.752 46.3811 38.8729 45.5021C37.9939 44.623 37.5 43.4307 37.5 42.1875V35.665ZM39.0625 29.6875H45.3125C45.5185 29.6845 45.7231 29.7228 45.914 29.8003C46.1049 29.8777 46.2784 29.9927 46.4241 30.1384C46.5698 30.2841 46.6848 30.4576 46.7622 30.6485C46.8397 30.8394 46.878 31.044 46.875 31.25V31.2588C46.8768 31.4641 46.8376 31.6677 46.7596 31.8576C46.6817 32.0475 46.5665 32.2199 46.4209 32.3647C46.2753 32.5094 46.1023 32.6236 45.9119 32.7005C45.7216 32.7774 45.5178 32.8155 45.3125 32.8125H39.0625C38.6481 32.8125 38.2507 32.6479 37.9576 32.3549C37.6646 32.0618 37.5 31.6644 37.5 31.25C37.5 30.8356 37.6646 30.4382 37.9576 30.1451C38.2507 29.8521 38.6481 29.6875 39.0625 29.6875ZM37.5 23.165C38.0012 23.3454 38.5298 23.4375 39.0625 23.4375H45.3125C45.8451 23.4375 46.3738 23.3453 46.875 23.165V26.834C46.3736 26.6545 45.8451 26.5627 45.3125 26.5625H39.0625C38.5299 26.5626 38.0014 26.6544 37.5 26.834V23.165ZM39.0625 17.1875H45.3125C45.5185 17.1845 45.7231 17.2228 45.914 17.3003C46.1049 17.3777 46.2784 17.4927 46.4241 17.6384C46.5698 17.7841 46.6848 17.9576 46.7622 18.1485C46.8397 18.3394 46.878 18.544 46.875 18.75V18.7588C46.8768 18.9641 46.8376 19.1677 46.7596 19.3576C46.6817 19.5475 46.5665 19.7199 46.4209 19.8647C46.2753 20.0094 46.1023 20.1236 45.9119 20.2005C45.7216 20.2774 45.5178 20.3155 45.3125 20.3125H39.0625C38.6481 20.3125 38.2507 20.1479 37.9576 19.8549C37.6646 19.5618 37.5 19.1644 37.5 18.75C37.5 18.3356 37.6646 17.9382 37.9576 17.6451C38.2507 17.3521 38.6481 17.1875 39.0625 17.1875ZM42.1875 3.125C42.8039 3.12189 43.4149 3.24102 43.985 3.47549C44.5551 3.70996 45.0731 4.05512 45.509 4.49101C45.9449 4.92691 46.29 5.44489 46.5245 6.015C46.759 6.58512 46.8781 7.19606 46.875 7.8125V14.334C46.3736 14.1545 45.8451 14.0627 45.3125 14.0625H39.0625C38.5299 14.0626 38.0014 14.1544 37.5 14.334V7.8125C37.4969 7.19606 37.616 6.58512 37.8505 6.015C38.085 5.44489 38.4301 4.92691 38.866 4.49101C39.3019 4.05512 39.8199 3.70996 40.39 3.47549C40.9601 3.24102 41.5711 3.12189 42.1875 3.125ZM42.1875 0C40.1174 0.00618253 38.1338 0.831268 36.6701 2.29506C35.2063 3.75885 34.3812 5.7424 34.375 7.8125V42.1875C34.375 44.2595 35.1981 46.2466 36.6632 47.7118C38.1284 49.1769 40.1155 50 42.1875 50C44.2595 50 46.2466 49.1769 47.7118 47.7118C49.1769 46.2466 50 44.2595 50 42.1875V7.8125C49.9936 5.74248 49.1684 3.75908 47.7047 2.29534C46.2409 0.831607 44.2575 0.00643869 42.1875 0Z" fill="white"/>
<path d="M24.9355 7.81248C24.7043 7.82211 24.478 7.883 24.2732 7.99075C24.0683 8.0985 23.8899 8.25042 23.751 8.43553L0.31348 39.6855C0.138862 39.9176 0.0323787 40.1937 0.00598049 40.483C-0.0204177 40.7722 0.0343144 41.063 0.164034 41.3229C0.293753 41.5827 0.493325 41.8013 0.740351 41.954C0.987377 42.1067 1.27208 42.1876 1.5625 42.1875H31.25C31.6644 42.1875 32.0618 42.0229 32.3549 41.7298C32.6479 41.4368 32.8125 41.0394 32.8125 40.625C32.8125 40.2106 32.6479 39.8132 32.3549 39.5201C32.0618 39.2271 31.6644 39.0625 31.25 39.0625H4.6875L12.8906 28.125H21.875C23.1164 28.1191 24.3052 27.6233 25.183 26.7455C26.0608 25.8677 26.5566 24.6789 26.5625 23.4375C26.5593 23.2314 26.5976 23.0268 26.675 22.8358C26.7524 22.6448 26.8674 22.4713 27.0131 22.3256C27.1588 22.1799 27.3323 22.0649 27.5233 21.9875C27.7143 21.9101 27.9189 21.8718 28.125 21.875H31.25C31.6644 21.875 32.0618 21.7104 32.3549 21.4173C32.6479 21.1243 32.8125 20.7269 32.8125 20.3125C32.8125 19.8981 32.6479 19.5007 32.3549 19.2076C32.0618 18.9146 31.6644 18.75 31.25 18.75H28.125C26.8836 18.7559 25.6948 19.2516 24.817 20.1294C23.9392 21.0072 23.4434 22.1961 23.4375 23.4375C23.4404 23.6435 23.402 23.848 23.3245 24.0388C23.247 24.2297 23.132 24.4031 22.9863 24.5488C22.8406 24.6945 22.6672 24.8094 22.4764 24.8869C22.2855 24.9644 22.081 25.0029 21.875 25H15.2344L25.0977 11.8408L30.0781 17.4433C30.3533 17.7541 30.7407 17.9429 31.1551 17.9681C31.5694 17.9933 31.9768 17.8528 32.2876 17.5776C32.5984 17.3024 32.7872 16.915 32.8123 16.5007C32.8375 16.0863 32.6971 15.6789 32.4219 15.3681L26.1719 8.3369C26.0177 8.16307 25.8268 8.02581 25.6129 7.93509C25.3991 7.84437 25.1676 7.80249 24.9355 7.81248Z" fill="white"/>
</g>
<defs>
<clipPath id="clip0_34_10">
<rect width="50" height="50" fill="white"/>
</clipPath>
</defs>
</svg>
