<svg width="290" height="310" viewBox="0 0 290 310" fill="none" xmlns="http://www.w3.org/2000/svg">
<g filter="url(#filter0_f_50_59)">
<path d="M180.275 -119.342C168.539 -149.877 110.478 -164.956 120.06 -104.159C121.631 -94.1898 121.789 -77.0246 120.06 -56.1311C118.476 -36.9914 87.469 -26.5186 77.951 -1.78807C63.024 36.9968 118.835 64.0302 109.954 84.4187C98.3209 111.122 62.7025 122.709 43.001 137.318C24.4541 151.072 12.6403 173.14 8.10422 195.828C0.146263 235.632 14.588 277.345 54.3703 279.42C74.2851 280.459 100.55 271.565 133.534 247.526C148.282 236.778 161.285 227.92 172.843 220.758C202.589 202.324 194.592 245.928 229.963 247.526C250.117 248.436 271.167 210.793 287.102 230.872C298.433 245.149 311.435 262.473 330.004 280.283C362.614 311.56 403.385 316.166 409.152 271.526C411.875 250.454 406.796 218.408 389.377 173.014C378.23 143.965 405.957 144.989 409.152 107.763C412.347 70.5377 386.223 53.3705 405.134 37.9634L405.513 37.6548C419.927 25.9127 435.301 13.3893 443.697 -10.6646C450.929 -31.3847 450.238 -51.9065 443.697 -67.6754C436.697 -84.5517 422.995 -95.9841 405.134 -96.3896C387.213 -96.7966 365.104 -86.102 341.373 -58.6661C325.728 -40.5771 315.132 -82.6674 287.102 -78.3647C259.072 -74.0621 255.176 -33.4503 238.384 -45.2293C209.216 -65.6904 194.02 -83.581 180.275 -119.342Z" stroke="#EB623B" stroke-width="3"/>
<path d="M236.892 47.2173C235.106 42.5298 226.782 43.7602 226.361 48.8403C225.881 54.6246 228.805 62.1623 228.467 67.9603C227.815 79.1551 223.86 82.3417 215.985 88.2421C213.163 90.3535 211.365 93.7413 210.674 97.2243C209.463 103.335 211.661 109.738 217.715 110.057C220.746 110.217 224.743 108.851 229.763 105.161C232.007 103.511 233.986 102.151 235.745 101.052C243.402 95.8819 250.528 99.9326 253.134 102.604C254.858 104.796 256.837 107.455 259.663 110.19C264.626 114.991 272.141 114.362 271.708 108.845C271.097 101.052 257.79 71.9597 271.708 66.8869C278.173 64.5306 277.961 59.1929 276.965 56.7721C275.9 54.1813 273.815 52.4263 271.097 52.364C268.369 52.3015 263.851 56.7721 261.393 58.1552C252.319 63.261 244.223 65.9003 236.892 47.2173Z" stroke="#EB623B" stroke-width="3"/>
<path d="M129.767 -90.8568C121.264 -146.203 174.322 -132.407 185.081 -104.414C198.254 -70.1919 212.817 -54.1529 240.182 -35.9977C255.572 -25.3433 259.276 -62.4247 284.941 -66.4551C310.607 -70.4855 320.412 -32.2904 334.772 -48.7453C356.611 -73.7013 376.917 -83.2731 393.32 -82.6691C409.617 -82.1909 422.111 -71.6145 428.423 -56.0858C434.317 -41.5647 434.804 -22.72 427.93 -3.76222C418.957 18.772 406.001 32.7982 392.842 44.2664C375.655 58.533 399.263 74.2907 396.134 108.182C393.005 142.072 367.493 141.047 377.41 167.26C393.002 208.313 397.442 237.229 394.809 256.203C389.443 296.696 352.125 292.355 322.175 263.835C305.001 247.568 292.834 231.832 282.177 219.075C267.518 200.906 248.185 235.277 229.643 234.598C197.231 233.31 204.303 193.753 177.055 210.595C166.357 217.182 154.365 225.268 140.809 235.039C110.247 256.882 86.1489 264.396 68.1391 262.899C31.9735 260.854 18.8899 222.748 26.2115 186.394C30.4196 165.613 41.2737 145.411 58.2775 132.802C76.9197 118.978 109.688 108.149 120.331 82.8431C128.428 64.0317 77.5879 39.1354 91.1124 3.54761C99.7154 -19.2534 127.872 -29.0822 129.335 -46.7568C130.927 -65.9954 130.982 -81.755 129.767 -90.8568Z" stroke="#EB623B" stroke-width="3"/>
<path d="M139.911 -76.9948C132.498 -126.709 180.475 -114.24 190.242 -88.8816C202.824 -56.3143 216.733 -42.1789 242.255 -26.3882C256.221 -16.8932 259.727 -50.3224 282.99 -54.067C306.254 -57.8117 315.255 -23.6369 328.307 -38.4037C348.223 -60.7981 366.696 -69.216 381.557 -68.4174C396.265 -67.8683 407.534 -58.1829 413.149 -44.0532C418.387 -30.8278 418.669 -13.7223 412.162 3.41081C402.7 24.1397 392.376 39.6095 380.601 50.6749C365.163 63.7536 386.222 78.0499 383.163 108.495C380.104 138.94 356.844 137.916 365.516 161.207C379.258 197.786 383.054 223.477 380.513 240.292C375.556 276.506 341.746 272.443 314.5 246.774C298.746 232.103 287.433 218.006 277.463 206.812C264.102 190.612 246.515 221.598 229.612 221.152C200.207 220.179 206.342 184.797 181.633 199.992C171.81 205.982 160.847 213.27 148.502 222.033C120.407 241.607 98.5115 247.718 82.433 245.77C49.9371 243.761 38.2308 209.387 44.9053 176.603C48.7793 157.796 58.6579 139.527 74.0937 128.105C91.6495 115.112 121.519 105.077 131.158 81.2542C138.458 64.082 92.6634 41.4051 104.766 9.13151C112.441 -11.6645 137.706 -20.8166 139.046 -36.9676C140.5 -54.4876 140.768 -68.7896 139.911 -76.9948Z" stroke="#EB623B" stroke-width="3"/>
<path d="M149.616 -63.6924C143.282 -107.956 186.253 -96.7684 195.043 -73.9527C207.053 -42.9252 220.33 -30.6413 244.048 -17.1564C256.612 -8.78611 259.925 -38.6848 280.822 -42.1571C301.72 -45.6294 309.93 -15.3498 321.696 -28.4825C339.719 -48.397 356.389 -55.6921 369.73 -54.6966C382.873 -54.0749 392.933 -45.2455 397.859 -32.4635C402.45 -20.486 402.527 -5.05781 396.377 10.313C386.41 29.3112 378.704 46.2749 368.295 56.9763C354.582 68.9143 373.123 81.8009 370.129 108.911C367.135 136.021 346.092 134.995 353.532 155.45C365.446 187.689 368.604 210.25 366.151 224.967C361.595 257.035 331.241 253.235 306.657 230.324C292.298 217.196 281.82 204.687 272.524 195.013C260.44 180.723 244.57 208.437 229.281 208.222C202.837 207.559 208.046 176.224 185.836 189.827C176.873 195.242 166.923 201.758 155.77 209.545C130.098 226.922 110.371 231.653 96.1991 229.248C67.3229 227.269 56.9759 196.502 63.0137 167.168C66.5595 150.268 75.4779 133.865 89.3695 123.588C105.866 111.38 132.884 102.102 141.533 79.6782C148.047 64.0833 107.228 43.5436 117.926 14.4672C124.686 -4.39909 147.099 -12.9071 148.318 -27.5929C149.634 -43.4578 150.116 -56.354 149.616 -63.6924Z" stroke="#EB623B" stroke-width="3"/>
<path d="M159.754 -50.3907C154.511 -89.2019 192.399 -79.2964 200.196 -59.0234C211.614 -29.5332 224.235 -19.1018 246.108 -7.92434C257.247 -0.679192 260.362 -27.0464 278.856 -30.2466C297.35 -33.4467 304.756 -7.06379 315.214 -18.5618C331.312 -35.9956 346.148 -42.1673 357.947 -40.9742C369.501 -40.2797 378.335 -32.3064 382.563 -20.8722C386.498 -10.1426 386.37 3.60811 380.589 17.2162C370.134 34.484 365.06 52.9471 356.035 63.2856C344.072 74.0831 360.062 85.5599 357.139 109.334C354.215 133.108 335.425 132.08 341.621 149.698C351.684 177.594 354.198 197.024 351.837 209.641C347.692 237.562 320.846 234.026 298.968 213.873C286.03 202.288 276.407 191.367 267.8 183.215C257.014 170.836 242.891 195.277 229.241 195.293C205.806 194.941 210.079 167.654 190.409 179.665C182.321 184.504 173.401 190.249 163.46 197.058C140.256 212.238 122.733 215.588 110.493 212.724C85.2878 210.775 76.3186 183.616 81.7089 157.733C84.9203 142.74 92.8627 128.203 105.185 119.072C120.594 107.649 144.712 99.1279 152.356 78.1007C158.073 64.0831 122.301 45.6807 131.577 19.802C137.409 2.86549 156.929 -4.99878 158.025 -18.2194C159.203 -32.429 159.897 -43.9194 159.754 -50.3907Z" stroke="#EB623B" stroke-width="3"/>
<path d="M169.888 -36.4631C165.735 -69.7353 198.539 -61.1341 205.344 -43.4492C216.168 -15.5631 228.131 -7.00744 248.156 1.83801C257.87 7.94189 260.786 -14.835 276.876 -17.7557C292.967 -20.6764 299.566 1.75096 308.716 -8.08668C322.89 -23.0009 335.891 -28.0355 346.147 -26.6477C356.111 -25.882 363.719 -18.7826 367.249 -8.72194C370.53 0.735653 370.196 12.7781 364.785 24.5931C353.845 40.0916 351.4 60.0111 343.759 69.9633C333.546 79.5959 346.986 89.6372 344.133 110.022C341.281 130.407 324.746 129.38 329.697 144.12C337.911 167.612 339.781 183.868 337.513 194.358C333.777 218.069 310.442 214.804 291.27 197.454C279.754 187.439 270.986 178.13 263.069 171.518C253.582 161.077 241.206 182.191 229.198 182.438C208.772 182.398 212.109 159.219 194.979 169.611C187.767 173.864 179.878 178.824 171.149 184.642C150.415 197.59 135.096 199.552 124.788 196.236C103.254 194.322 95.6627 170.831 100.405 148.456C103.282 135.404 110.248 122.766 121.001 114.801C135.32 104.188 156.537 96.4435 163.176 76.861C168.095 64.452 137.371 48.2283 145.224 25.6052C150.128 10.6365 166.757 3.43365 167.729 -8.29211C168.768 -20.8146 169.675 -30.8733 169.888 -36.4631Z" stroke="#EB623B" stroke-width="3"/>
<path d="M179.584 -23.1612C176.512 -50.9782 204.301 -43.6597 210.126 -28.5184C220.379 -2.16692 231.709 4.53475 249.928 11.0706C258.237 16.0487 260.96 -3.19524 274.68 -5.84384C288.4 -8.49243 294.208 10.036 302.069 1.83389C314.347 -10.5984 325.541 -14.5086 334.275 -12.9227C342.671 -12.0839 349.068 -5.8406 351.908 2.87187C354.539 11.0812 354.001 21.4457 348.947 31.4973C337.5 45.2654 337.679 66.6905 331.406 76.281C322.922 84.773 333.839 93.4041 331.052 110.451C328.264 127.499 313.949 126.47 317.666 138.37C324.048 157.517 325.278 170.64 323.099 179.029C319.765 198.589 299.891 195.588 283.386 180.998C273.267 172.527 265.336 164.807 258.093 159.718C249.885 151.189 239.23 169.028 228.838 169.506C211.379 169.778 213.787 150.65 199.162 159.449C192.81 163.126 185.937 167.314 178.402 172.154C160.095 182.904 146.948 183.483 138.55 179.706C120.643 177.822 114.413 157.94 118.518 139.018C121.066 127.874 127.07 117.103 136.277 110.283C149.535 100.455 167.895 93.4671 173.542 75.2802C177.674 64.4488 151.935 50.363 158.382 30.9386C162.368 17.9 176.139 11.3406 176.99 1.0803C177.891 -9.78657 179.012 -18.4389 179.584 -23.1612Z" stroke="#EB623B" stroke-width="3"/>
<path d="M189.706 -9.86035C187.723 -32.2178 210.423 -26.1827 215.254 -13.5862C224.908 11.2361 235.574 16.0813 251.939 20.304C258.82 24.155 261.344 8.44639 272.658 6.06966C283.971 3.69292 288.972 18.3189 295.523 11.7536C305.872 1.80541 315.23 -0.978893 322.418 0.806114C329.223 1.71848 334.393 7.10573 336.536 14.4696C338.511 21.4304 337.769 30.1163 333.087 38.4034C321.164 50.4416 323.964 73.3838 319.076 82.6152C312.343 89.9667 320.709 97.1869 317.994 110.894C315.28 124.601 303.223 123.569 305.696 132.627C310.229 147.425 310.816 157.41 308.731 163.696C305.808 179.103 289.449 176.364 275.654 164.536C266.96 157.61 259.887 151.48 253.337 147.916C246.43 141.301 237.524 155.864 228.776 156.575C214.33 157.159 215.803 142.084 203.721 149.289C198.247 152.391 192.406 155.806 186.085 159.668C170.254 168.218 159.314 167.41 152.849 163.171C138.615 161.315 133.763 145.045 137.219 129.578C139.432 120.342 144.458 111.44 152.094 105.766C164.256 96.7201 179.711 90.489 184.352 73.695C187.686 64.4413 166.998 52.4938 172.022 36.2696C175.08 25.1616 185.957 19.2449 186.685 10.4502C187.447 1.23938 188.779 -6.00607 189.706 -9.86035Z" stroke="#EB623B" stroke-width="3"/>
<path d="M199.544 3.43952C198.641 -13.4513 216.375 -8.70081 220.239 1.34861C229.349 24.6499 239.414 27.6347 254.017 29.5382C259.509 32.2604 261.848 20.0911 270.816 17.9859C279.784 15.8807 284.006 26.5983 289.282 21.6721C297.76 14.2113 305.332 12.5554 311.014 14.5412C316.266 15.5279 320.236 20.0589 321.691 26.0735C323.022 31.785 322.07 38.7911 317.733 45.3121C305.261 55.6207 310.707 80.0978 307.179 88.9739C302.161 95.1847 308.019 100.993 305.361 111.356C302.703 121.718 292.838 120.683 294.079 126.893C296.784 137.334 296.73 144.177 294.727 148.356C292.199 159.602 279.265 157.126 268.105 148.062C260.787 142.683 254.533 138.146 248.639 136.11C242.994 131.413 235.789 142.695 228.636 143.64C217.125 144.538 217.669 133.523 208.065 139.133L207.799 139.277C203.253 141.759 198.5 144.355 193.456 147.182C180.012 153.528 171.22 151.328 166.654 146.623C156.018 144.795 152.519 132.141 155.345 120.132C157.235 112.807 161.311 105.775 167.416 101.248C178.553 92.9821 191.187 87.5068 194.847 72.1014C197.401 64.426 181.654 54.6181 185.281 41.5965C187.427 32.4198 195.467 27.1449 196.076 19.8162C196.703 12.2623 198.254 6.4248 199.544 3.43952Z" stroke="#EB623B" stroke-width="3"/>
<path d="M209.642 17.3847C209.827 6.03467 222.456 9.47954 225.322 16.9374C233.821 38.6122 243.21 39.724 255.94 39.3009C260 40.8823 262.136 32.3059 268.689 30.4817C275.243 28.6575 278.652 35.42 282.614 32.1545C289.155 27.2139 294.882 26.6932 299.014 28.8707C302.67 29.9272 305.41 33.5819 306.167 38.2203C306.841 42.6573 305.687 47.9524 301.727 52.6784C288.798 61.2114 296.854 87.111 294.712 95.5914C291.449 100.634 294.753 105.004 292.171 111.977C289.589 118.949 281.993 117.916 281.99 121.252C282.846 127.29 282.151 130.961 280.245 133.015C278.13 140.051 268.722 137.849 260.283 131.59C254.398 127.781 249.009 124.857 243.815 124.358C239.478 121.598 234.029 129.55 228.527 130.724C220.039 131.932 219.649 125.025 212.597 129.014C208.854 130.953 205.051 132.809 201.129 134.7C190.175 138.814 183.599 135.233 180.967 130.083C174.013 128.291 171.895 119.308 174.07 110.811C175.622 105.428 178.716 100.298 183.245 96.9384C193.272 89.49 202.987 84.795 205.637 70.8477C207.391 64.7849 196.71 57.16 198.911 47.3987C200.127 40.1942 205.268 35.5849 205.752 29.7548C206.239 23.8914 207.999 19.4878 209.642 17.3847Z" stroke="#EB623B" stroke-width="3"/>
<path d="M219.888 30.703C221.157 24.854 228.722 27.0042 230.598 31.8936C238.499 51.9907 247.227 51.2375 258.11 48.494C260.75 48.9414 262.686 43.9296 266.844 42.3818C271.002 40.834 273.608 43.667 276.266 42.0506C280.887 39.6124 284.787 40.2226 287.381 42.5956C289.454 43.7239 290.972 46.5121 291.035 49.7881C291.057 52.9634 289.701 56.5635 286.111 59.5096C272.711 66.2896 283.373 93.6602 282.61 101.763C281.089 105.651 281.854 108.597 279.345 112.204C276.836 115.811 271.488 114.777 270.248 115.254C269.264 116.915 267.93 117.431 266.118 117.37C264.412 120.224 258.502 118.29 252.76 114.815C248.294 112.565 243.759 111.242 239.256 112.274C236.213 111.44 232.506 116.089 228.639 117.494C223.15 119.012 221.831 116.188 217.31 118.569C214.44 119.926 211.665 121.003 208.951 121.908C200.462 123.807 196.083 118.841 195.374 113.237C192.076 111.478 191.329 106.137 192.858 101.124C194.076 97.6672 196.197 94.4212 199.162 92.2189C208.097 85.5705 214.92 81.6439 216.568 69.122C217.528 64.6544 211.874 59.1906 212.659 52.6599C212.952 47.4069 215.213 43.4518 215.574 39.1039C215.922 34.914 217.892 31.9309 219.888 30.703Z" stroke="#EB623B" stroke-width="3"/>
</g>
<defs>
<filter id="filter0_f_50_59" x="0.500183" y="-151.5" width="453.865" height="461.395" filterUnits="userSpaceOnUse" color-interpolation-filters="sRGB">
<feFlood flood-opacity="0" result="BackgroundImageFix"/>
<feBlend mode="normal" in="SourceGraphic" in2="BackgroundImageFix" result="shape"/>
<feGaussianBlur stdDeviation="2" result="effect1_foregroundBlur_50_59"/>
</filter>
</defs>
</svg>
